<svg width="80" height="88" viewBox="0 0 80 88" fill="none" xmlns="http://www.w3.org/2000/svg">
<g filter="url(#filter0_b_1_247)">
<path d="M0 47.8954C0 25.8618 17.9664 8 40 8C62.0336 8 80 25.8618 80 47.8954C80 69.929 62.0336 87.7908 40 87.7908C17.9664 87.7908 0 69.929 0 47.8954Z" fill="url(#paint0_radial_1_247)"/>
<path d="M0.5 47.8954C0.5 26.1396 18.2408 8.5 40 8.5C61.7592 8.5 79.5 26.1396 79.5 47.8954C79.5 69.6512 61.7592 87.2908 40 87.2908C18.2408 87.2908 0.5 69.6512 0.5 47.8954Z" stroke="url(#paint1_radial_1_247)"/>
<path d="M0.5 47.8954C0.5 26.1396 18.2408 8.5 40 8.5C61.7592 8.5 79.5 26.1396 79.5 47.8954C79.5 69.6512 61.7592 87.2908 40 87.2908C18.2408 87.2908 0.5 69.6512 0.5 47.8954Z" stroke="url(#paint2_radial_1_247)"/>
<path d="M0.5 47.8954C0.5 26.1396 18.2408 8.5 40 8.5C61.7592 8.5 79.5 26.1396 79.5 47.8954C79.5 69.6512 61.7592 87.2908 40 87.2908C18.2408 87.2908 0.5 69.6512 0.5 47.8954Z" stroke="url(#paint3_radial_1_247)"/>
</g>
<g filter="url(#filter1_f_1_247)">
<ellipse cx="39.7436" cy="29.4822" rx="25.3846" ry="16.3673" fill="url(#paint4_radial_1_247)" fill-opacity="0.2"/>
</g>
<path fill-rule="evenodd" clip-rule="evenodd" d="M34 32C33.6045 32.0001 33.2179 32.1174 32.8891 32.3372C32.5603 32.557 32.304 32.8693 32.1526 33.2347C32.0013 33.6001 31.9617 34.0022 32.0388 34.3901C32.116 34.778 32.3064 35.1343 32.586 35.414L34 36.828V44.344C33.9999 44.8744 33.7891 45.383 33.414 45.758L25.414 53.758C21.634 57.538 24.312 64 29.656 64H50.342C55.688 64 58.366 57.538 54.586 53.758L46.586 45.758C46.2109 45.383 46.0001 44.8744 46 44.344V36.828L47.414 35.414C47.6936 35.1343 47.884 34.778 47.9612 34.3901C48.0383 34.0022 47.9987 33.6001 47.8473 33.2347C47.696 32.8693 47.4397 32.557 47.1109 32.3372C46.7821 32.1174 46.3955 32.0001 46 32H34ZM38 44.344V36H42V44.344C42.0009 45.9345 42.6332 47.4595 43.758 48.584L45.812 50.64C44.3736 50.306 42.8708 50.3766 41.47 50.844L40.53 51.156C38.8877 51.7035 37.1122 51.7035 35.47 51.156L34.344 50.782C34.2687 50.7564 34.1927 50.7331 34.116 50.712L36.242 48.586C37.3673 47.461 37.9996 45.9352 38 44.344Z" fill="url(#paint5_linear_1_247)"/>
<defs>
<filter id="filter0_b_1_247" x="-5" y="3" width="90" height="89.7908" filterUnits="userSpaceOnUse" color-interpolation-filters="sRGB">
<feFlood flood-opacity="0" result="BackgroundImageFix"/>
<feGaussianBlur in="BackgroundImageFix" stdDeviation="2.5"/>
<feComposite in2="SourceAlpha" operator="in" result="effect1_backgroundBlur_1_247"/>
<feBlend mode="normal" in="SourceGraphic" in2="effect1_backgroundBlur_1_247" result="shape"/>
</filter>
<filter id="filter1_f_1_247" x="1.40441" y="0.160334" width="76.6783" height="58.6438" filterUnits="userSpaceOnUse" color-interpolation-filters="sRGB">
<feFlood flood-opacity="0" result="BackgroundImageFix"/>
<feBlend mode="normal" in="SourceGraphic" in2="BackgroundImageFix" result="shape"/>
<feGaussianBlur stdDeviation="6.47727" result="effect1_foregroundBlur_1_247"/>
</filter>
<radialGradient id="paint0_radial_1_247" cx="0" cy="0" r="1" gradientUnits="userSpaceOnUse" gradientTransform="translate(6.69204 8) rotate(47.9449) scale(119.431 86.7751)">
<stop stop-color="white" stop-opacity="0.36"/>
<stop offset="1" stop-color="white" stop-opacity="0"/>
</radialGradient>
<radialGradient id="paint1_radial_1_247" cx="0" cy="0" r="1" gradientUnits="userSpaceOnUse" gradientTransform="translate(-42.5965 16.1628) rotate(35.0407) scale(92.1512 54.3882)">
<stop stop-color="white"/>
<stop offset="1" stop-color="white" stop-opacity="0.06"/>
</radialGradient>
<radialGradient id="paint2_radial_1_247" cx="0" cy="0" r="1" gradientUnits="userSpaceOnUse" gradientTransform="translate(103.421 61.4008) rotate(161.385) scale(66.8428 45.1784)">
<stop stop-color="#8470FF"/>
<stop offset="1" stop-color="#865CFF" stop-opacity="0"/>
</radialGradient>
<radialGradient id="paint3_radial_1_247" cx="0" cy="0" r="1" gradientUnits="userSpaceOnUse" gradientTransform="translate(40.871 -10.2359) rotate(47.2149) scale(44.643 32.0879)">
<stop/>
<stop offset="1" stop-color="white" stop-opacity="0"/>
</radialGradient>
<radialGradient id="paint4_radial_1_247" cx="0" cy="0" r="1" gradientUnits="userSpaceOnUse" gradientTransform="translate(39.7436 13.1149) rotate(90) scale(24.2566 37.625)">
<stop stop-color="white"/>
<stop offset="1" stop-color="white" stop-opacity="0"/>
</radialGradient>
<linearGradient id="paint5_linear_1_247" x1="60.6076" y1="32" x2="24.3596" y2="64.7903" gradientUnits="userSpaceOnUse">
<stop stop-color="#E4FD84"/>
<stop offset="0.989583" stop-color="#EBAE79"/>
</linearGradient>
</defs>
</svg>
