<svg width="191" height="225" viewBox="0 0 191 225" fill="none" xmlns="http://www.w3.org/2000/svg">
<g filter="url(#filter0_d_1_127)">
<mask id="path-1-inside-1_1_127" fill="white">
<path fill-rule="evenodd" clip-rule="evenodd" d="M38.3722 115.018C38.3622 115.048 38.3556 115.079 38.3525 115.11L38.231 116.341C38.1899 116.757 37.6338 116.866 37.4391 116.496L36.8631 115.401C36.835 115.348 36.7959 115.302 36.7482 115.265L35.778 114.513C35.4438 114.255 35.6566 113.72 36.0773 113.761L37.2142 113.873C37.2962 113.882 37.3788 113.865 37.4518 113.827L37.5484 113.776L32.8967 98.5575L28.3998 113.27L29.5006 113.135C29.9202 113.083 30.1457 113.613 29.8176 113.88L28.8655 114.654C28.8188 114.692 28.7807 114.739 28.7539 114.793L28.204 115.901C28.0182 116.275 27.4596 116.18 27.4087 115.765L27.3291 115.117L16.8473 126.356L32.0756 122.839L31.926 122.34C31.9087 122.283 31.8792 122.229 31.8395 122.184L31.0315 121.261C30.7531 120.942 31.0646 120.458 31.4695 120.58L32.5638 120.908C32.6427 120.932 32.7269 120.932 32.8058 120.908L33.9001 120.58C34.305 120.458 34.6165 120.942 34.3381 121.261L33.5301 122.184C33.4904 122.229 33.4609 122.283 33.4436 122.34L33.3215 122.748L48.9461 126.356L38.3722 115.018ZM32.4756 118.353C33.6387 118.353 34.1604 117.599 34.1604 116.669C34.1604 115.738 33.6387 114.984 32.4756 114.984C31.3125 114.984 30.7909 115.738 30.7909 116.669C30.7909 117.599 31.3125 118.353 32.4756 118.353Z"/>
</mask>
<path fill-rule="evenodd" clip-rule="evenodd" d="M38.3722 115.018C38.3622 115.048 38.3556 115.079 38.3525 115.11L38.231 116.341C38.1899 116.757 37.6338 116.866 37.4391 116.496L36.8631 115.401C36.835 115.348 36.7959 115.302 36.7482 115.265L35.778 114.513C35.4438 114.255 35.6566 113.72 36.0773 113.761L37.2142 113.873C37.2962 113.882 37.3788 113.865 37.4518 113.827L37.5484 113.776L32.8967 98.5575L28.3998 113.27L29.5006 113.135C29.9202 113.083 30.1457 113.613 29.8176 113.88L28.8655 114.654C28.8188 114.692 28.7807 114.739 28.7539 114.793L28.204 115.901C28.0182 116.275 27.4596 116.18 27.4087 115.765L27.3291 115.117L16.8473 126.356L32.0756 122.839L31.926 122.34C31.9087 122.283 31.8792 122.229 31.8395 122.184L31.0315 121.261C30.7531 120.942 31.0646 120.458 31.4695 120.58L32.5638 120.908C32.6427 120.932 32.7269 120.932 32.8058 120.908L33.9001 120.58C34.305 120.458 34.6165 120.942 34.3381 121.261L33.5301 122.184C33.4904 122.229 33.4609 122.283 33.4436 122.34L33.3215 122.748L48.9461 126.356L38.3722 115.018ZM32.4756 118.353C33.6387 118.353 34.1604 117.599 34.1604 116.669C34.1604 115.738 33.6387 114.984 32.4756 114.984C31.3125 114.984 30.7909 115.738 30.7909 116.669C30.7909 117.599 31.3125 118.353 32.4756 118.353Z" fill="url(#paint0_linear_1_127)"/>
<path d="M38.3525 115.11L39.0231 115.177V115.177L38.3525 115.11ZM38.3722 115.018L38.865 114.559L38.0921 113.73L37.733 114.805L38.3722 115.018ZM38.231 116.341L37.5604 116.275V116.275L38.231 116.341ZM37.4391 116.496L36.8428 116.81L37.4391 116.496ZM36.8631 115.401L36.2667 115.715L36.2667 115.715L36.8631 115.401ZM36.7482 115.265L37.1608 114.732L37.1608 114.732L36.7482 115.265ZM35.778 114.513L35.3654 115.046L35.778 114.513ZM36.0773 113.761L36.0111 114.432L36.0773 113.761ZM37.2142 113.873L37.148 114.544L37.148 114.544L37.2142 113.873ZM37.4518 113.827L37.7656 114.423L37.7656 114.423L37.4518 113.827ZM37.5484 113.776L37.8623 114.372L38.3559 114.113L38.1929 113.579L37.5484 113.776ZM32.8967 98.5575L33.5412 98.3605L32.8967 96.252L32.2523 98.3605L32.8967 98.5575ZM28.3998 113.27L27.7553 113.073L27.452 114.065L28.4819 113.939L28.3998 113.27ZM29.5006 113.135L29.4186 112.466L29.4186 112.466L29.5006 113.135ZM29.8176 113.88L29.3925 113.357L29.3925 113.357L29.8176 113.88ZM28.8655 114.654L28.4404 114.131L28.4404 114.131L28.8655 114.654ZM28.7539 114.793L28.1503 114.494L28.1503 114.494L28.7539 114.793ZM28.204 115.901L28.8076 116.201L28.204 115.901ZM27.4087 115.765L28.0775 115.683V115.683L27.4087 115.765ZM27.3291 115.117L27.998 115.035L27.822 113.601L26.8363 114.657L27.3291 115.117ZM16.8473 126.356L16.3545 125.896L14.8507 127.509L16.999 127.012L16.8473 126.356ZM32.0756 122.839L32.2272 123.496L32.9276 123.334L32.721 122.645L32.0756 122.839ZM31.926 122.34L32.5715 122.147L32.5715 122.147L31.926 122.34ZM31.8395 122.184L31.3324 122.628L31.3324 122.628L31.8395 122.184ZM31.0315 121.261L31.5386 120.817H31.5386L31.0315 121.261ZM31.4695 120.58L31.2758 121.225H31.2758L31.4695 120.58ZM32.5638 120.908L32.3701 121.554L32.3701 121.554L32.5638 120.908ZM32.8058 120.908L32.9995 121.554L32.9995 121.554L32.8058 120.908ZM33.9001 120.58L34.0937 121.225H34.0938L33.9001 120.58ZM34.3381 121.261L33.8309 120.817L34.3381 121.261ZM33.5301 122.184L34.0372 122.628L34.0372 122.628L33.5301 122.184ZM33.4436 122.34L32.7981 122.147L32.7981 122.147L33.4436 122.34ZM33.3215 122.748L32.676 122.554L32.4695 123.242L33.1698 123.404L33.3215 122.748ZM48.9461 126.356L48.7945 127.012L50.9427 127.509L49.4389 125.896L48.9461 126.356ZM39.0231 115.177C39.0213 115.195 39.0173 115.214 39.0113 115.232L37.733 114.805C37.7071 114.882 37.6899 114.962 37.6819 115.044L39.0231 115.177ZM38.9016 116.407L39.0231 115.177L37.6819 115.044L37.5604 116.275L38.9016 116.407ZM36.8428 116.81C37.3488 117.771 38.7949 117.488 38.9016 116.407L37.5604 116.275C37.585 116.025 37.9187 115.96 38.0355 116.182L36.8428 116.81ZM36.2667 115.715L36.8428 116.81L38.0355 116.182L37.4594 115.088L36.2667 115.715ZM36.3356 115.797C36.3071 115.775 36.2836 115.747 36.2667 115.715L37.4594 115.088C37.3865 114.949 37.2846 114.828 37.1608 114.732L36.3356 115.797ZM35.3654 115.046L36.3356 115.797L37.1608 114.732L36.1906 113.981L35.3654 115.046ZM36.1435 113.091C35.0496 112.983 34.4964 114.373 35.3654 115.046L36.1906 113.981C36.3911 114.136 36.2635 114.457 36.0111 114.432L36.1435 113.091ZM37.2804 113.203L36.1435 113.091L36.0111 114.432L37.148 114.544L37.2804 113.203ZM37.1379 113.231C37.1816 113.208 37.2312 113.198 37.2804 113.203L37.148 114.544C37.3613 114.565 37.576 114.523 37.7656 114.423L37.1379 113.231ZM37.2345 113.18L37.1379 113.231L37.7656 114.423L37.8623 114.372L37.2345 113.18ZM32.2523 98.7545L36.9039 113.973L38.1929 113.579L33.5412 98.3605L32.2523 98.7545ZM29.0443 113.467L33.5412 98.7545L32.2523 98.3605L27.7553 113.073L29.0443 113.467ZM29.4186 112.466L28.3177 112.601L28.4819 113.939L29.5827 113.804L29.4186 112.466ZM30.2427 114.403C31.0956 113.709 30.5095 112.332 29.4186 112.466L29.5827 113.804C29.331 113.835 29.1957 113.517 29.3925 113.357L30.2427 114.403ZM29.2906 115.177L30.2427 114.403L29.3925 113.357L28.4404 114.131L29.2906 115.177ZM29.3575 115.093C29.3415 115.125 29.3187 115.154 29.2906 115.177L28.4404 114.131C28.3189 114.23 28.22 114.353 28.1503 114.494L29.3575 115.093ZM28.8076 116.201L29.3575 115.093L28.1503 114.494L27.6004 115.601L28.8076 116.201ZM26.7398 115.847C26.8721 116.925 28.3245 117.174 28.8076 116.201L27.6004 115.601C27.7118 115.377 28.047 115.434 28.0775 115.683L26.7398 115.847ZM26.6603 115.199L26.7398 115.847L28.0775 115.683L27.998 115.035L26.6603 115.199ZM17.3401 126.816L27.822 115.577L26.8363 114.657L16.3545 125.896L17.3401 126.816ZM31.9239 122.182L16.6957 125.699L16.999 127.012L32.2272 123.496L31.9239 122.182ZM31.2805 122.534L31.4301 123.033L32.721 122.645L32.5715 122.147L31.2805 122.534ZM31.3324 122.628C31.3086 122.601 31.2909 122.569 31.2805 122.534L32.5715 122.147C32.5265 121.997 32.4498 121.858 32.3467 121.74L31.3324 122.628ZM30.5243 121.704L31.3324 122.628L32.3467 121.74L31.5386 120.817L30.5243 121.704ZM31.6631 119.934C30.6104 119.619 29.8005 120.877 30.5243 121.704L31.5386 120.817C31.7057 121.008 31.5188 121.298 31.2758 121.225L31.6631 119.934ZM32.7574 120.263L31.6631 119.934L31.2758 121.225L32.3701 121.554L32.7574 120.263ZM32.6122 120.263C32.6595 120.248 32.71 120.248 32.7574 120.263L32.3701 121.554C32.5754 121.615 32.7942 121.615 32.9995 121.554L32.6122 120.263ZM33.7065 119.934L32.6122 120.263L32.9995 121.554L34.0937 121.225L33.7065 119.934ZM34.8453 121.704C35.5691 120.877 34.7592 119.619 33.7065 119.934L34.0938 121.225C33.8508 121.298 33.6639 121.008 33.8309 120.817L34.8453 121.704ZM34.0372 122.628L34.8453 121.704L33.8309 120.817L33.0229 121.74L34.0372 122.628ZM34.0891 122.534C34.0787 122.569 34.061 122.601 34.0372 122.628L33.0229 121.74C32.9198 121.858 32.8431 121.997 32.7981 122.147L34.0891 122.534ZM33.967 122.941L34.0891 122.534L32.7981 122.147L32.676 122.554L33.967 122.941ZM49.0978 125.699L33.4731 122.091L33.1698 123.404L48.7945 127.012L49.0978 125.699ZM37.8793 115.478L48.4533 126.816L49.4389 125.896L38.865 114.559L37.8793 115.478ZM33.4865 116.669C33.4865 117.014 33.3899 117.258 33.2544 117.408C33.1292 117.546 32.9037 117.679 32.4756 117.679V119.027C33.2106 119.027 33.8275 118.783 34.2539 118.312C34.6699 117.852 34.8343 117.254 34.8343 116.669H33.4865ZM32.4756 115.658C32.9037 115.658 33.1292 115.791 33.2544 115.929C33.3899 116.079 33.4865 116.323 33.4865 116.669H34.8343C34.8343 116.084 34.6699 115.485 34.2539 115.025C33.8275 114.554 33.2106 114.31 32.4756 114.31V115.658ZM31.4648 116.669C31.4648 116.323 31.5613 116.079 31.6968 115.929C31.822 115.791 32.0476 115.658 32.4756 115.658V114.31C31.7406 114.31 31.1237 114.554 30.6973 115.025C30.2813 115.485 30.117 116.084 30.117 116.669H31.4648ZM32.4756 117.679C32.0476 117.679 31.822 117.546 31.6968 117.408C31.5613 117.258 31.4648 117.014 31.4648 116.669H30.117C30.117 117.254 30.2813 117.852 30.6973 118.312C31.1237 118.783 31.7406 119.027 32.4756 119.027V117.679Z" fill="black" mask="url(#path-1-inside-1_1_127)"/>
<path d="M34.6848 115.806C34.6734 115.749 34.618 115.712 34.5609 115.723C34.5039 115.734 34.4669 115.79 34.4783 115.847L34.6848 115.806ZM32.0289 118.877C32.9028 119.095 33.6821 118.878 34.186 118.319C34.6881 117.761 34.9 116.881 34.6848 115.806L34.4783 115.847C34.6844 116.877 34.4751 117.683 34.0295 118.178C33.5858 118.671 32.8908 118.875 32.08 118.672L32.0289 118.877ZM19.9164 125.165L27.9189 116.741L27.7662 116.596L19.7637 125.02L19.9164 125.165ZM32.3754 101.538L36.1661 113.331L36.3666 113.267L32.5759 101.474L32.3754 101.538ZM34.9791 121.825L45.93 124.353L45.9773 124.147L35.0264 121.62L34.9791 121.825Z" fill="black"/>
</g>
<g filter="url(#filter1_d_1_127)">
<path d="M110.655 55.996C110.54 55.7007 110.503 55.4602 110.598 55.2443L117.069 57.5662L112.908 63.2853L108.862 59.3381C109.881 59.0901 110.509 58.7969 110.861 58.453C111.063 58.255 111.176 58.0387 111.216 57.8093C111.256 57.5838 111.222 57.362 111.159 57.1547C111.097 56.9483 111.002 56.7439 110.91 56.5525C110.895 56.5205 110.879 56.4889 110.864 56.4576C110.786 56.2971 110.713 56.1458 110.655 55.996Z" fill="#6A6A6A" stroke="black" stroke-width="0.421188"/>
<path d="M149.392 53.5037L150.298 59.8466L144.674 53.4675L144.612 53.3967L144.525 53.3593L135.533 49.4788L142.412 48.3695L142.559 48.3457L142.659 48.2342C146.279 44.1815 148.216 41.6483 151.414 37.0602C151.715 37.1698 151.999 37.2114 152.26 37.1769C152.632 37.1277 152.925 36.9257 153.092 36.6245C153.362 36.1376 153.261 35.5056 152.917 34.9804C153.064 34.7625 153.209 34.5489 153.351 34.3389C156.137 30.2162 157.97 27.5038 159.72 22.2324C159.922 21.6257 160.513 21.257 161.099 21.3654C162.695 21.6606 163.821 22.08 166.097 23.238C166.192 23.2863 166.281 23.3472 166.358 23.4169C167.991 24.892 168.817 26.0281 169.703 27.497C170.013 28.0111 169.898 28.6863 169.429 29.0936C163.695 34.0782 159.885 38.6211 152.707 48.784C152.293 48.7139 151.843 48.769 151.532 49.0681C151.152 49.4344 151.161 49.9681 151.408 50.519C150.585 51.4613 150.046 52.2412 149.449 53.2257L149.371 53.3545L149.392 53.5037Z" fill="url(#paint1_linear_1_127)" stroke="black" stroke-width="0.842375"/>
<path d="M75.5615 124.88L75.5617 124.88L109.047 61.6243C110.912 61.9288 113.398 61.6721 115.044 60.9429C115.883 60.571 116.559 60.0516 116.77 59.3677C116.981 58.6845 116.705 57.9322 115.895 57.1426L118.757 43.5607L143.984 54.2611C149.41 60.2382 153.911 64.8063 157.27 68.2159C157.728 68.6802 158.164 69.123 158.579 69.545C160.312 71.3096 161.662 72.7055 162.594 73.7836C163.06 74.3228 163.418 74.7776 163.665 75.1558C163.916 75.5394 164.039 75.8224 164.064 76.0217C164.071 76.0775 164.038 76.159 163.936 76.2562C112.904 124.781 93.5626 144.312 71.6622 166.427C60.8281 177.367 49.3677 188.94 33.1347 204.968L70.5518 134.561C71.358 134.462 72.0143 134.328 72.5194 134.133C73.0478 133.93 73.4348 133.65 73.6414 133.248C73.848 132.846 73.8526 132.365 73.7093 131.806C73.5723 131.271 73.2943 130.642 72.8928 129.902L75.5615 124.88Z" fill="url(#paint2_linear_1_127)" stroke="black" stroke-width="0.421188"/>
<path d="M75.2538 122.807L75.2541 122.806L108.668 59.6847C109.496 59.8128 110.238 59.828 110.851 59.7253C111.529 59.6117 112.119 59.3405 112.441 58.8408C112.774 58.3227 112.743 57.6837 112.446 57.0199C112.179 56.4217 111.679 55.7558 110.938 55.0293L117.797 42.3997C117.901 42.2088 118.133 42.1281 118.333 42.2133L144.603 53.4168L163.012 74.5612C163.158 74.7281 163.149 74.9791 162.992 75.1356L33.1484 204.914L70.1968 132.584C70.9593 132.485 71.5974 132.352 72.1014 132.158C72.6553 131.944 73.0956 131.638 73.335 131.172C73.5743 130.707 73.5696 130.167 73.4196 129.581C73.2827 129.047 73.0144 128.433 72.6379 127.729L75.2538 122.807Z" fill="url(#paint3_linear_1_127)" stroke="black" stroke-width="0.842375"/>
<g filter="url(#filter2_d_1_127)">
<path d="M42.1772 126.554C46.2568 144.471 52.619 153.542 71.961 167.808M119.196 42.5403L112.036 56.0183M109.93 59.809L102.77 73.287M145.376 54.4946L128.156 77.9053M137.842 50.5211L143.129 49.4504C143.315 49.4128 143.484 49.3118 143.606 49.1674C148.015 43.9587 149.854 41.3695 152.316 37.3173C152.371 37.226 152.445 37.146 152.527 37.0778C152.916 36.7553 153.093 36.4487 153.324 35.919C153.357 35.8423 153.402 35.7695 153.456 35.7054C157.48 30.9187 159.196 27.6243 161.75 21.5726M58.4793 158.414L35.7964 201.335M65.0155 163.745L37.9724 199.799" stroke="black" stroke-width="0.421188"/>
</g>
</g>
<path d="M122.974 66.6699C123.663 64.4152 124.479 61.7489 126.241 58.3685C126.882 62.4927 128.048 65.4533 129.007 67.8892C129.385 68.8479 129.73 69.7253 129.999 70.5604C130.494 72.0965 130.734 73.4944 130.472 75.0209C130.21 76.5497 129.44 78.23 127.872 80.32L127.639 80.6319L128.028 80.6566C129.621 80.7578 130.718 80.7221 131.564 80.5399C132.42 80.3556 133.012 80.0235 133.6 79.5521C133.933 79.2844 134.261 78.9768 134.635 78.6268C135.48 77.834 136.557 76.8236 138.457 75.5667C136.615 79.3728 136.376 82.3331 136.17 84.8967C136.131 85.385 136.092 85.8588 136.045 86.3214C135.888 87.8378 135.628 89.2284 134.896 90.6284C134.164 92.0283 132.951 93.4535 130.863 95.0195L130.453 95.3268L130.961 95.3966C132.58 95.6195 133.765 95.5888 134.727 95.3644C135.693 95.1392 136.419 94.7221 137.124 94.197C137.468 93.9407 137.807 93.6602 138.165 93.3627C139.159 92.5384 140.309 91.5835 142.186 90.6497C140.282 93.5844 139.439 95.9999 138.781 97.8846C138.605 98.3888 138.442 98.855 138.276 99.283C137.859 100.356 137.428 101.172 136.73 101.774C136.034 102.375 135.05 102.782 133.49 102.982L133.316 103.004L133.306 103.179L132.043 125.502L132.031 125.698L132.227 125.722C133.113 125.833 133.791 125.667 134.377 125.335C134.948 125.011 135.426 124.533 135.917 124.042L135.929 124.03C136.847 123.113 137.87 122.091 139.787 121.617C137.905 124.502 137.231 127.77 136.591 130.872C136.448 131.565 136.306 132.25 136.154 132.92C135.279 136.76 134.034 140.152 130.052 142.173L129.549 142.428L130.096 142.565C130.977 142.786 131.636 142.708 132.197 142.424C132.744 142.147 133.176 141.682 133.621 141.185C133.656 141.145 133.692 141.105 133.728 141.065C134.527 140.169 135.456 139.127 137.28 138.506C134.359 143.636 133.547 146.781 132.926 149.185C132.789 149.712 132.663 150.204 132.525 150.673C132.135 151.998 131.658 153.142 130.634 154.424C129.605 155.712 128.017 157.147 125.391 159.038L125.361 159.059L125.341 159.088C120.675 165.795 116.438 169.742 111.516 172.239C106.689 174.688 101.186 175.753 93.9325 176.635L101.26 165.643L101.585 165.156L101.024 165.325C93.4366 167.611 86.9107 164.658 82.0935 159.071C77.2709 153.477 74.1778 145.256 73.4964 137.079C72.8147 128.899 74.5487 120.804 79.3272 115.44C84.0935 110.089 91.9303 107.41 103.564 110.135L103.799 110.19L103.822 109.949L105.506 92.2596L105.52 92.1199L105.396 92.0539C103.119 90.839 100.832 89.5799 98.8423 88.2099C96.8513 86.839 95.1735 85.3665 94.1055 83.7309C93.0418 82.1019 92.583 80.3119 93.0244 78.2855C93.4635 76.2699 94.7983 73.9966 97.3686 71.404C106.35 72.7239 110.178 73.8215 116.175 76.0112L116.27 76.0456L116.356 75.994C118.206 74.8852 119.451 73.7905 120.354 72.6148C121.258 71.4394 121.813 70.1935 122.296 68.7966C122.528 68.1259 122.744 67.4207 122.974 66.6699Z" fill="black" stroke="black" stroke-width="0.421188"/>
<g style="mix-blend-mode:exclusion" filter="url(#filter3_if_1_127)">
<ellipse cx="110.38" cy="140.03" rx="11.7867" ry="16.5031" transform="rotate(11.5919 110.38 140.03)" fill="#D60000"/>
</g>
<path d="M50.3004 154.52L44.8768 159.943C45.0144 155.983 44.7751 153.029 43.7028 150.612C42.6223 148.176 40.7088 146.311 37.5587 144.504L45.7808 141.372L50.3004 154.52Z" fill="#7E9134" stroke="black" stroke-width="0.421188"/>
<g filter="url(#filter4_d_1_127)">
<path d="M51.3847 76.6558C68.1631 70.4724 77.8854 68.114 97.2942 71.1804C96.913 73.2486 97.2159 74.2554 98.5577 75.8134L98.9789 82.9736L105.718 92.2398C107.016 100.662 107.132 104.962 104.033 110.351C98.599 109.895 95.0328 112.055 88.8704 114.984C86.2387 123.806 84.6489 128.684 79.6043 136.043C84.5985 136.364 87.1034 141.923 91.3975 154.997L88.8704 158.366L92.6611 156.681L101.927 165.526C99.8456 170.696 98.5204 173.499 93.5035 176.898C65.6612 177.943 56.2985 173.388 44.6457 160.472C45.9092 149.521 45.4044 147.366 37.0643 144.467C34.8028 132.971 34.2768 126.515 34.5372 114.984C35.5688 107.786 35.0526 104.631 32.0101 100.664C18.2928 80.491 18.488 71.5259 20.3797 56.3694C20.4729 55.6227 21.4328 55.3692 21.8944 55.9635C37.2606 75.7491 41.0236 74.5884 51.3847 76.6558Z" fill="url(#paint4_linear_1_127)"/>
<path d="M51.3023 77.0689L51.4188 77.0921L51.5303 77.051C59.9147 73.9611 66.5047 71.8391 73.4118 70.8665C80.2135 69.9087 87.3428 70.063 96.8087 71.5307C96.6805 72.3971 96.684 73.1169 96.874 73.8009C97.084 74.557 97.51 75.2263 98.1456 75.9792L98.5585 82.9984L98.5657 83.1216L98.6383 83.2214L105.317 92.4048C105.956 96.5646 106.295 99.6756 106.104 102.403C105.918 105.057 105.229 107.36 103.799 109.911C99.0482 109.583 95.645 111.235 90.8337 113.57C90.1501 113.902 89.438 114.248 88.6896 114.603L88.5204 114.684L88.4668 114.863C85.8384 123.675 84.2635 128.501 79.2569 135.805L78.8381 136.416L79.5773 136.464C81.8766 136.611 83.6476 137.946 85.3996 140.95C87.1419 143.937 88.812 148.486 90.9289 154.92L88.5335 158.113L87.5622 159.409L89.0415 158.751L92.5744 157.181L101.43 165.634C100.437 168.091 99.617 169.968 98.469 171.637C97.3024 173.334 95.784 174.831 93.3667 176.482C79.5291 176.994 70.3258 176.112 63.1464 173.524C56.0133 170.954 50.8384 166.686 45.0859 160.331C45.3895 157.681 45.5881 155.531 45.5882 153.759C45.5882 151.945 45.3808 150.491 44.8411 149.279C43.7698 146.873 41.4557 145.566 37.4312 144.149C35.2166 132.84 34.7011 126.425 34.9577 115.019C35.4721 111.422 35.6076 108.787 35.2164 106.54C34.822 104.276 33.8982 102.435 32.3517 100.417C25.5125 90.3576 22.1662 83.1275 20.7533 76.547C19.3401 69.965 19.8522 63.9966 20.7976 56.4216C20.8429 56.0586 21.3235 55.9151 21.5618 56.2219C29.2485 66.1194 34.0722 70.8321 38.3032 73.3172C41.7188 75.3234 44.744 75.8683 48.4757 76.5405C49.3721 76.7019 50.3092 76.8707 51.3023 77.0689Z" stroke="black" stroke-width="0.842375"/>
</g>
<path d="M101.736 170.018C102.354 168.747 103.208 167.256 104.286 165.499C106.761 165.192 108.649 164.667 110.438 163.797C112.208 162.936 113.863 161.745 115.879 160.128C116.803 160.605 117.389 161.045 117.763 161.644C118.159 162.275 118.355 163.143 118.354 164.557C116.134 167.94 114.265 170.364 111.949 172.218C109.64 174.067 106.861 175.369 102.793 176.456C101.888 176.104 101.304 175.691 100.963 175.209C100.615 174.716 100.482 174.094 100.601 173.248C100.721 172.392 101.096 171.335 101.736 170.018Z" fill="url(#paint5_linear_1_127)" stroke="black" stroke-width="0.842375"/>
<path d="M118.354 154.628C118.354 153.949 119.068 153.508 119.675 153.811C120.169 154.059 120.75 154.059 121.244 153.811L121.371 153.748C122.056 153.406 122.881 153.785 123.067 154.528L123.593 156.63C123.719 157.137 123.611 157.674 123.297 158.093C122.969 158.53 122.454 158.787 121.908 158.787H120.506C119.317 158.787 118.354 157.823 118.354 156.634V154.628Z" fill="url(#paint6_linear_1_127)" stroke="black" stroke-width="0.842375"/>
<path d="M85.366 130.487C85.5175 129.619 85.8387 128.597 86.3052 127.375L90.7654 119.266C91.616 119.53 92.2778 120.062 92.92 120.98C93.6371 122.005 94.3096 123.48 95.1685 125.549C94.5813 128.056 94.0269 129.88 93.1524 131.371C92.2945 132.833 91.1131 134.001 89.2298 135.165C86.8974 134.484 85.8154 133.683 85.437 132.61C85.2385 132.047 85.2136 131.36 85.366 130.487Z" fill="url(#paint7_linear_1_127)" stroke="black" stroke-width="0.842375"/>
<path d="M118.017 115.779C117.93 115.489 117.982 115.072 118.313 114.322C118.764 113.443 119.213 112.886 119.756 112.438C120.265 112.018 120.868 111.68 121.679 111.266C122.339 111.779 122.711 112.192 122.906 112.625C123.107 113.071 123.144 113.595 123.011 114.387C122.374 115.206 121.845 115.724 121.237 116.063C120.636 116.398 119.922 116.579 118.88 116.659C118.329 116.312 118.098 116.048 118.017 115.779Z" fill="url(#paint8_linear_1_127)" stroke="black" stroke-width="0.842375"/>
<path d="M94.7325 121.09C94.4018 120.485 94.1718 119.818 93.9671 118.92C94.7201 118.238 95.3506 117.769 96.0665 117.428C96.8149 117.071 97.6815 116.842 98.9164 116.679C99.4526 116.927 99.6495 117.198 99.7441 117.512C99.8508 117.866 99.8411 118.3 99.8267 118.941C99.8257 118.987 99.8246 119.035 99.8235 119.083C99.2738 120.085 98.7919 120.79 98.2097 121.376C97.6651 121.925 97.0173 122.385 96.1106 122.885C95.4842 122.23 95.0554 121.681 94.7325 121.09Z" fill="url(#paint9_linear_1_127)" stroke="black" stroke-width="0.842375"/>
<path d="M107.739 113.792C107.315 112.813 107.082 111.686 106.991 110.088L115.285 101.399C115.923 102.78 116.373 103.888 116.542 105.103C116.731 106.46 116.573 107.985 115.856 110.192C114.95 112.067 114.104 113.272 113.108 114.214C112.165 115.105 111.069 115.78 109.606 116.561C108.741 115.564 108.147 114.733 107.739 113.792Z" fill="url(#paint10_linear_1_127)" stroke="black" stroke-width="0.842375"/>
<path d="M115.529 99.0616C112.702 100.145 110.977 101.285 108.432 103.393C108.934 100.249 108.933 98.1955 108.338 95.1768C109.823 95.1489 110.983 95.1547 112.057 95.3377C113.198 95.532 114.252 95.9288 115.477 96.7252C115.697 97.3547 115.786 97.7789 115.783 98.1262C115.781 98.4409 115.703 98.72 115.529 99.0616Z" fill="url(#paint11_linear_1_127)" stroke="black" stroke-width="0.842375"/>
<path d="M104.331 74.8936C104.747 73.7534 105.369 72.6636 106.272 71.3141C109.501 73.0989 111.451 73.8416 114.733 74.5069C115.423 75.5262 115.785 76.3169 115.939 77.1024C116.097 77.9069 116.045 78.7437 115.847 79.8717C114.477 82.0897 113.296 83.5392 111.988 84.6737C110.736 85.76 109.35 86.5728 107.528 87.493C106.422 86.0182 105.64 84.8293 105.044 83.5979C104.418 82.3044 103.989 80.9484 103.613 79.1451C103.668 77.3974 103.887 76.1059 104.331 74.8936Z" fill="url(#paint12_linear_1_127)" stroke="black" stroke-width="0.842375"/>
<path d="M118.876 84.2594C119.045 83.3203 119.367 82.3855 119.927 81.1971C122.786 80.0716 124.345 79.9788 127.056 80.0221C127.689 80.5027 127.96 80.9186 128.077 81.363C128.2 81.8351 128.164 82.3886 128.063 83.1944C126.6 84.606 125.32 85.4738 123.864 86.052C122.459 86.6096 120.868 86.9069 118.749 87.1402C118.694 86.0186 118.72 85.1285 118.876 84.2594Z" fill="url(#paint13_linear_1_127)" stroke="black" stroke-width="0.842375"/>
<g filter="url(#filter5_d_1_127)">
<path d="M103.191 176.476C102.549 175.669 102.398 172.852 104.454 165.525M89.2917 134.779C86.5983 132.661 86.1193 130.617 88.0281 124.67M96.4519 122.564C95.6149 120.32 95.2559 119.156 95.6095 117.931M109.93 116.246C108.689 112.869 107.707 110.817 108.666 108.665M109.088 86.3421C105.173 81.3333 104.177 78.2004 106.139 71.6006M120.46 86.7633C120.228 84.4978 120.257 83.2171 121.302 80.8667M109.93 101.926C110.123 99.81 110.279 98.6925 109.509 95.1871M120.46 158.365C119.761 157.455 119.905 156.207 120.038 154.153M120.038 116.246C119.139 115.492 118.765 115.048 118.775 114.141M95.1883 71.6006C95.1972 74.3338 95.5186 75.5916 96.9566 76.066C97.3736 76.2036 97.6967 76.5715 97.6723 77.0099L97.3137 83.4652C97.3013 83.6891 97.3786 83.9088 97.5287 84.0754L104.675 92.0156C104.805 92.1599 104.881 92.3476 104.89 92.5416C105.247 100.403 104.619 104.655 103.047 109.159C102.896 109.589 102.427 109.808 101.985 109.701C99.1213 109.006 95.9039 109.786 87.9554 113.554C87.7366 113.657 87.5684 113.856 87.5019 114.088C85.1185 122.439 83.2513 127.351 79.237 135.504C78.9963 135.993 79.2772 136.584 79.7646 136.827C82.959 138.424 85.7962 144.105 89.1899 153.86C89.2551 154.047 89.2526 154.255 89.1813 154.441L87.1858 159.629M93.0824 176.476C96.3471 173.239 98.0995 171.277 99.2927 166.401C99.3616 166.119 99.2757 165.822 99.0706 165.617L92.4617 159.008C92.3187 158.865 92.1289 158.777 91.9268 158.768C90.5936 158.707 89.5756 158.921 87.607 159.629" stroke="black" stroke-width="0.421188"/>
</g>
<g filter="url(#filter6_d_1_127)">
<path d="M48.922 142.896C49.9847 147.507 52.2785 151.357 55.1092 153.86C57.9406 156.364 61.2816 157.5 64.4724 156.765C67.6633 156.03 70.1698 153.545 71.6196 150.055C73.069 146.565 73.4457 142.099 72.383 137.488C71.3204 132.878 69.0266 129.027 66.1959 126.524C63.3644 124.02 60.0235 122.884 56.8326 123.619C53.6418 124.355 51.1353 126.839 49.6855 130.33C48.2361 133.819 47.8593 138.286 48.922 142.896Z" fill="#7E9134" stroke="black" stroke-width="0.761144"/>
<g filter="url(#filter7_f_1_127)">
<ellipse cx="10.3809" cy="16.2042" rx="10.3809" ry="16.2042" transform="matrix(-0.97445 0.224604 0.224604 0.97445 68.7906 121.843)" fill="black"/>
<path d="M52.3843 142.253C53.3824 146.583 55.4088 150.236 57.8683 152.642C60.3296 155.051 63.2027 156.193 65.9113 155.569C68.6198 154.945 70.7029 152.66 71.8617 149.417C73.0196 146.177 73.2428 142.006 72.2447 137.675C71.2466 133.345 69.2202 129.693 66.7607 127.286C64.2994 124.878 61.4262 123.735 58.7177 124.36C56.0091 124.984 53.9261 127.269 52.7673 130.512C51.6093 133.752 51.3862 137.923 52.3843 142.253Z" stroke="black" stroke-width="0.380572"/>
</g>
</g>
<g filter="url(#filter8_d_1_127)">
<path d="M22.7439 57.2812C22.3227 62.3355 17.2685 77.0771 33.2736 101.085" stroke="black" stroke-width="0.421188"/>
</g>
<g filter="url(#filter9_d_1_127)">
<path d="M102.77 109.508L101.085 105.718H98.1366M98.1366 105.718L100.664 101.085M98.1366 105.718L96.8731 101.927L92.24 104.033L93.5036 106.981M78.3408 136.464L76.2349 130.147L80.8679 128.462M78.3408 136.464L74.9713 134.78M78.3408 136.464L77.9196 136.886L76.2349 138.57H80.4468L79.1832 141.519M86.7646 160.051L85.501 162.578L85.9222 166.369M86.7646 160.051L88.4493 162.578L88.0281 165.105M86.7646 160.051L82.9739 158.366V152.891L85.501 154.997" stroke="black" stroke-width="0.210594"/>
</g>
<g filter="url(#filter10_d_1_127)">
<mask id="path-29-inside-2_1_127" fill="white">
<path fill-rule="evenodd" clip-rule="evenodd" d="M139.59 110.397C139.547 110.41 139.505 110.427 139.466 110.449L137.916 111.31C137.393 111.601 136.811 111.035 137.088 110.504L137.907 108.932C137.947 108.855 137.97 108.771 137.975 108.685L138.068 106.928C138.101 106.323 138.904 106.138 139.199 106.667L139.994 108.099C140.052 108.202 140.138 108.286 140.243 108.341L140.382 108.413L154.519 90.5134L133.513 97.2195L134.571 98.4066C134.974 98.859 134.534 99.5569 133.952 99.3879L132.263 98.8976C132.18 98.8736 132.093 98.8675 132.007 98.88L130.253 99.1359C129.66 99.2223 129.317 98.4862 129.764 98.0878L130.463 97.4653L108.666 94.2848L125.237 109.359L125.702 108.776C125.756 108.709 125.795 108.631 125.816 108.547L126.245 106.841C126.392 106.253 127.217 106.225 127.404 106.802L127.91 108.359C127.947 108.471 128.016 108.571 128.108 108.644L129.388 109.666C129.861 110.044 129.545 110.806 128.943 110.737L127.195 110.539C127.109 110.529 127.023 110.538 126.941 110.565L126.361 110.753L134.859 132.109L139.59 110.397ZM130.849 106.17C131.798 107.541 133.112 107.54 134.209 106.781C135.305 106.022 135.768 104.791 134.819 103.421C133.87 102.05 132.555 102.051 131.459 102.81C130.363 103.57 129.9 104.8 130.849 106.17Z"/>
</mask>
<path fill-rule="evenodd" clip-rule="evenodd" d="M139.59 110.397C139.547 110.41 139.505 110.427 139.466 110.449L137.916 111.31C137.393 111.601 136.811 111.035 137.088 110.504L137.907 108.932C137.947 108.855 137.97 108.771 137.975 108.685L138.068 106.928C138.101 106.323 138.904 106.138 139.199 106.667L139.994 108.099C140.052 108.202 140.138 108.286 140.243 108.341L140.382 108.413L154.519 90.5134L133.513 97.2195L134.571 98.4066C134.974 98.859 134.534 99.5569 133.952 99.3879L132.263 98.8976C132.18 98.8736 132.093 98.8675 132.007 98.88L130.253 99.1359C129.66 99.2223 129.317 98.4862 129.764 98.0878L130.463 97.4653L108.666 94.2848L125.237 109.359L125.702 108.776C125.756 108.709 125.795 108.631 125.816 108.547L126.245 106.841C126.392 106.253 127.217 106.225 127.404 106.802L127.91 108.359C127.947 108.471 128.016 108.571 128.108 108.644L129.388 109.666C129.861 110.044 129.545 110.806 128.943 110.737L127.195 110.539C127.109 110.529 127.023 110.538 126.941 110.565L126.361 110.753L134.859 132.109L139.59 110.397ZM130.849 106.17C131.798 107.541 133.112 107.54 134.209 106.781C135.305 106.022 135.768 104.791 134.819 103.421C133.87 102.05 132.555 102.051 131.459 102.81C130.363 103.57 129.9 104.8 130.849 106.17Z" fill="url(#paint14_linear_1_127)"/>
<path d="M139.466 110.449L139.766 110.99L139.766 110.99L139.466 110.449ZM139.59 110.397L140.195 110.529L140.416 109.513L139.417 109.803L139.59 110.397ZM137.916 111.31L138.217 111.851L137.916 111.31ZM137.088 110.504L137.636 110.789L137.088 110.504ZM137.907 108.932L137.359 108.646L137.907 108.932ZM137.975 108.685L137.357 108.652L137.975 108.685ZM138.068 106.928L137.451 106.895L137.451 106.895L138.068 106.928ZM139.199 106.667L139.739 106.367L139.739 106.367L139.199 106.667ZM139.994 108.099L140.535 107.798L140.535 107.798L139.994 108.099ZM140.243 108.341L139.957 108.889L139.957 108.889L140.243 108.341ZM140.382 108.413L140.096 108.961L140.55 109.198L140.867 108.796L140.382 108.413ZM154.519 90.5134L155.004 90.8968L156.258 89.3087L154.331 89.9242L154.519 90.5134ZM133.513 97.2195L133.325 96.6303L132.418 96.9199L133.051 97.631L133.513 97.2195ZM134.571 98.4066L135.033 97.9951L134.571 98.4066ZM133.952 99.3879L134.124 98.7939L134.124 98.7939L133.952 99.3879ZM132.263 98.8976L132.09 99.4916L132.09 99.4916L132.263 98.8976ZM132.007 98.88L131.918 98.268L131.918 98.268L132.007 98.88ZM130.253 99.1359L130.164 98.5238L130.164 98.5238L130.253 99.1359ZM129.764 98.0878L129.353 97.6259L129.764 98.0878ZM130.463 97.4653L130.875 97.9272L131.865 97.0448L130.552 96.8533L130.463 97.4653ZM108.666 94.2848L108.756 93.6728L106.753 93.3806L108.25 94.7424L108.666 94.2848ZM125.237 109.359L124.82 109.817L125.308 110.261L125.72 109.745L125.237 109.359ZM125.702 108.776L126.186 109.162L126.186 109.162L125.702 108.776ZM125.816 108.547L125.216 108.396L125.216 108.396L125.816 108.547ZM126.245 106.841L126.845 106.992L126.845 106.992L126.245 106.841ZM127.404 106.802L127.993 106.611L127.404 106.802ZM127.91 108.359L128.499 108.168L128.499 108.168L127.91 108.359ZM128.108 108.644L128.494 108.161L128.494 108.161L128.108 108.644ZM129.388 109.666L129.002 110.149L129.002 110.149L129.388 109.666ZM128.943 110.737L129.013 110.123L129.013 110.123L128.943 110.737ZM127.195 110.539L127.125 111.153L127.125 111.153L127.195 110.539ZM126.941 110.565L126.749 109.976L126.749 109.976L126.941 110.565ZM126.361 110.753L126.17 110.165L125.542 110.368L125.786 110.982L126.361 110.753ZM134.859 132.109L134.284 132.337L135.032 134.217L135.463 132.24L134.859 132.109ZM139.766 110.99C139.765 110.99 139.764 110.991 139.763 110.991L139.417 109.803C139.33 109.829 139.245 109.864 139.165 109.908L139.766 110.99ZM138.217 111.851L139.766 110.99L139.165 109.908L137.616 110.77L138.217 111.851ZM136.539 110.218C135.979 111.293 137.157 112.44 138.217 111.851L137.616 110.77C137.609 110.773 137.609 110.772 137.614 110.771C137.618 110.771 137.623 110.771 137.628 110.771C137.632 110.772 137.635 110.773 137.635 110.773C137.635 110.774 137.634 110.773 137.633 110.772C137.632 110.771 137.632 110.77 137.632 110.77C137.632 110.771 137.633 110.773 137.634 110.777C137.635 110.782 137.635 110.787 137.634 110.792C137.634 110.796 137.633 110.796 137.636 110.789L136.539 110.218ZM137.359 108.646L136.539 110.218L137.636 110.789L138.456 109.218L137.359 108.646ZM137.357 108.652C137.357 108.65 137.358 108.648 137.359 108.646L138.456 109.218C138.536 109.063 138.583 108.892 138.592 108.718L137.357 108.652ZM137.451 106.895L137.357 108.652L138.592 108.718L138.686 106.961L137.451 106.895ZM139.739 106.367C139.144 105.294 137.516 105.67 137.451 106.895L138.686 106.961C138.686 106.954 138.687 106.954 138.686 106.958C138.684 106.963 138.681 106.967 138.678 106.971C138.675 106.974 138.672 106.976 138.672 106.976C138.672 106.976 138.673 106.975 138.674 106.975C138.676 106.975 138.677 106.975 138.677 106.975C138.677 106.975 138.674 106.974 138.67 106.973C138.665 106.971 138.661 106.968 138.657 106.965C138.654 106.962 138.655 106.961 138.658 106.968L139.739 106.367ZM140.535 107.798L139.739 106.367L138.658 106.968L139.454 108.399L140.535 107.798ZM140.529 107.792C140.531 107.793 140.534 107.795 140.535 107.798L139.454 108.399C139.57 108.608 139.745 108.778 139.957 108.889L140.529 107.792ZM140.668 107.864L140.529 107.792L139.957 108.889L140.096 108.961L140.668 107.864ZM154.033 90.13L139.896 108.03L140.867 108.796L155.004 90.8968L154.033 90.13ZM133.701 97.8088L154.707 91.1026L154.331 89.9242L133.325 96.6303L133.701 97.8088ZM135.033 97.9951L133.975 96.8081L133.051 97.631L134.109 98.8181L135.033 97.9951ZM133.779 99.9819C134.957 100.324 135.849 98.9111 135.033 97.9951L134.109 98.8181C134.114 98.8236 134.113 98.8244 134.111 98.8199C134.11 98.8156 134.108 98.8104 134.108 98.8054C134.108 98.8009 134.109 98.7983 134.109 98.7979C134.109 98.7977 134.108 98.7987 134.107 98.8003C134.106 98.8018 134.106 98.8025 134.106 98.8023C134.106 98.8021 134.108 98.8004 134.112 98.7986C134.117 98.7967 134.122 98.7955 134.127 98.7953C134.132 98.795 134.131 98.796 134.124 98.7939L133.779 99.9819ZM132.09 99.4916L133.779 99.9819L134.124 98.7939L132.435 98.3036L132.09 99.4916ZM132.097 99.4921C132.094 99.4924 132.092 99.4922 132.09 99.4916L132.435 98.3036C132.267 98.2549 132.091 98.2427 131.918 98.268L132.097 99.4921ZM130.342 99.748L132.097 99.4921L131.918 98.268L130.164 98.5238L130.342 99.748ZM129.353 97.6259C128.448 98.4325 129.143 99.923 130.342 99.748L130.164 98.5238C130.157 98.5249 130.157 98.5239 130.161 98.5248C130.166 98.5256 130.171 98.5275 130.175 98.5299C130.179 98.5321 130.18 98.5339 130.181 98.5343C130.181 98.5345 130.18 98.5338 130.179 98.5323C130.179 98.5307 130.179 98.5298 130.179 98.5301C130.179 98.5305 130.179 98.5331 130.178 98.5374C130.177 98.5421 130.176 98.547 130.173 98.551C130.171 98.5551 130.171 98.5543 130.176 98.5496L129.353 97.6259ZM130.052 97.0035L129.353 97.6259L130.176 98.5496L130.875 97.9272L130.052 97.0035ZM108.577 94.8969L130.374 98.0774L130.552 96.8533L108.756 93.6728L108.577 94.8969ZM125.653 108.902L109.083 93.8273L108.25 94.7424L124.82 109.817L125.653 108.902ZM125.219 108.39L124.753 108.974L125.72 109.745L126.186 109.162L125.219 108.39ZM125.216 108.396C125.216 108.394 125.217 108.392 125.219 108.39L126.186 109.162C126.295 109.026 126.373 108.867 126.416 108.698L125.216 108.396ZM125.645 106.69L125.216 108.396L126.416 108.698L126.845 106.992L125.645 106.69ZM127.993 106.611C127.613 105.444 125.944 105.501 125.645 106.69L126.845 106.992C126.846 106.985 126.847 106.985 126.845 106.989C126.842 106.993 126.838 106.997 126.835 107C126.831 107.002 126.828 107.003 126.828 107.003C126.828 107.003 126.829 107.003 126.831 107.003C126.832 107.003 126.833 107.003 126.833 107.003C126.833 107.003 126.83 107.002 126.827 107C126.822 106.997 126.818 106.994 126.816 106.99C126.813 106.986 126.814 106.986 126.816 106.993L127.993 106.611ZM128.499 108.168L127.993 106.611L126.816 106.993L127.322 108.55L128.499 108.168ZM128.494 108.161C128.496 108.163 128.498 108.165 128.499 108.168L127.322 108.55C127.396 108.778 127.535 108.978 127.722 109.128L128.494 108.161ZM129.773 109.182L128.494 108.161L127.722 109.128L129.002 110.149L129.773 109.182ZM128.873 111.352C130.092 111.491 130.732 109.948 129.773 109.182L129.002 110.149C129.008 110.154 129.007 110.155 129.004 110.151C129.002 110.147 129 110.142 128.999 110.137C128.998 110.132 128.998 110.13 128.998 110.129C128.998 110.129 128.998 110.13 128.997 110.132C128.997 110.134 128.996 110.134 128.996 110.134C128.996 110.134 128.998 110.132 129.002 110.129C129.006 110.127 129.011 110.125 129.016 110.124C129.02 110.123 129.02 110.124 129.013 110.123L128.873 111.352ZM127.125 111.153L128.873 111.352L129.013 110.123L127.265 109.924L127.125 111.153ZM127.132 111.153C127.13 111.153 127.128 111.154 127.125 111.153L127.265 109.924C127.091 109.905 126.916 109.922 126.749 109.976L127.132 111.153ZM126.552 111.341L127.132 111.153L126.749 109.976L126.17 110.165L126.552 111.341ZM135.433 131.88L126.936 110.524L125.786 110.982L134.284 132.337L135.433 131.88ZM138.986 110.265L134.254 131.977L135.463 132.24L140.195 110.529L138.986 110.265ZM133.856 106.272C133.399 106.589 132.947 106.712 132.553 106.661C132.173 106.611 131.751 106.388 131.357 105.818L130.34 106.523C130.895 107.324 131.605 107.785 132.393 107.888C133.168 107.989 133.922 107.732 134.561 107.289L133.856 106.272ZM134.311 103.773C134.705 104.343 134.766 104.816 134.679 105.189C134.588 105.576 134.314 105.955 133.856 106.272L134.561 107.289C135.199 106.847 135.705 106.232 135.883 105.471C136.064 104.697 135.882 103.87 135.328 103.069L134.311 103.773ZM131.811 103.319C132.269 103.002 132.72 102.879 133.114 102.93C133.494 102.98 133.916 103.204 134.311 103.773L135.328 103.069C134.773 102.268 134.063 101.807 133.274 101.704C132.5 101.603 131.745 101.86 131.107 102.302L131.811 103.319ZM131.357 105.818C130.963 105.249 130.902 104.775 130.989 104.402C131.08 104.015 131.353 103.636 131.811 103.319L131.107 102.302C130.468 102.744 129.962 103.36 129.785 104.12C129.603 104.895 129.785 105.721 130.34 106.523L131.357 105.818Z" fill="black" mask="url(#path-29-inside-2_1_127)"/>
<path d="M135.656 107.269C135.715 107.208 135.714 107.11 135.652 107.051C135.591 106.991 135.493 106.993 135.434 107.055L135.656 107.269ZM129.864 106.644C130.32 107.854 131.212 108.596 132.285 108.733C133.353 108.87 134.564 108.401 135.656 107.269L135.434 107.055C134.388 108.138 133.27 108.547 132.324 108.426C131.383 108.306 130.576 107.655 130.153 106.535L129.864 106.644ZM112.573 96.933L129.03 99.4891L129.077 99.1835L112.621 96.6274L112.573 96.933ZM150.578 92.3289L139.775 106.419L140.02 106.607L150.824 92.5171L150.578 92.3289ZM128.797 111.955L134.755 126.921L135.042 126.807L129.084 111.841L128.797 111.955Z" fill="black"/>
</g>
<g filter="url(#filter11_d_1_127)">
<mask id="path-32-inside-3_1_127" fill="white">
<path fill-rule="evenodd" clip-rule="evenodd" d="M98.4244 176.141C98.4028 176.172 98.3846 176.205 98.3703 176.24L97.8101 177.607C97.6209 178.068 96.9473 178.003 96.8511 177.513L96.5665 176.064C96.5526 175.993 96.5238 175.926 96.4819 175.868L95.6289 174.676C95.335 174.266 95.7615 173.726 96.2287 173.918L97.4911 174.435C97.5822 174.473 97.6822 174.482 97.7788 174.464L97.9069 174.438L97.7921 155.434L87.6129 170.728L88.9184 170.95C89.4162 171.035 89.4928 171.718 89.0263 171.911L87.672 172.471C87.6055 172.499 87.5457 172.54 87.4966 172.593L86.4883 173.672C86.1477 174.036 85.5412 173.736 85.6249 173.244L85.7556 172.476L69.9171 181.748L88.5439 182.935L88.5434 182.314C88.5433 182.242 88.5278 182.171 88.498 182.105L87.8894 180.772C87.6798 180.313 88.2018 179.865 88.6235 180.143L89.7632 180.893C89.8455 180.947 89.9417 180.976 90.0402 180.976L91.4045 180.975C91.9094 180.974 92.1001 181.635 91.6727 181.903L90.4322 182.684C90.3713 182.722 90.3194 182.773 90.2798 182.833L90.0008 183.257L106.643 192.732L98.4244 176.141ZM90.5367 177.94C91.8674 178.338 92.7224 177.653 93.0408 176.588C93.3592 175.524 93.0204 174.482 91.6896 174.084C90.3589 173.686 89.5039 174.371 89.1855 175.435C88.8671 176.5 89.2059 177.542 90.5367 177.94Z"/>
</mask>
<path fill-rule="evenodd" clip-rule="evenodd" d="M98.4244 176.141C98.4028 176.172 98.3846 176.205 98.3703 176.24L97.8101 177.607C97.6209 178.068 96.9473 178.003 96.8511 177.513L96.5665 176.064C96.5526 175.993 96.5238 175.926 96.4819 175.868L95.6289 174.676C95.335 174.266 95.7615 173.726 96.2287 173.918L97.4911 174.435C97.5822 174.473 97.6822 174.482 97.7788 174.464L97.9069 174.438L97.7921 155.434L87.6129 170.728L88.9184 170.95C89.4162 171.035 89.4928 171.718 89.0263 171.911L87.672 172.471C87.6055 172.499 87.5457 172.54 87.4966 172.593L86.4883 173.672C86.1477 174.036 85.5412 173.736 85.6249 173.244L85.7556 172.476L69.9171 181.748L88.5439 182.935L88.5434 182.314C88.5433 182.242 88.5278 182.171 88.498 182.105L87.8894 180.772C87.6798 180.313 88.2018 179.865 88.6235 180.143L89.7632 180.893C89.8455 180.947 89.9417 180.976 90.0402 180.976L91.4045 180.975C91.9094 180.974 92.1001 181.635 91.6727 181.903L90.4322 182.684C90.3713 182.722 90.3194 182.773 90.2798 182.833L90.0008 183.257L106.643 192.732L98.4244 176.141ZM90.5367 177.94C91.8674 178.338 92.7224 177.653 93.0408 176.588C93.3592 175.524 93.0204 174.482 91.6896 174.084C90.3589 173.686 89.5039 174.371 89.1855 175.435C88.8671 176.5 89.2059 177.542 90.5367 177.94Z" fill="url(#paint15_linear_1_127)"/>
<path d="M98.3703 176.24L97.7467 175.984L97.7467 175.984L98.3703 176.24ZM98.4244 176.141L99.0283 175.842L98.5254 174.827L97.8733 175.753L98.4244 176.141ZM97.8101 177.607L97.1866 177.351L97.1866 177.351L97.8101 177.607ZM96.8511 177.513L96.1899 177.643L96.1899 177.643L96.8511 177.513ZM96.5665 176.064L97.2278 175.934L97.2278 175.934L96.5665 176.064ZM96.4819 175.868L97.0299 175.475L96.4819 175.868ZM95.6289 174.676L96.1769 174.284L95.6289 174.676ZM96.2287 173.918L95.9731 174.541L95.9731 174.541L96.2287 173.918ZM97.4911 174.435L97.7467 173.812L97.7467 173.812L97.4911 174.435ZM97.7788 174.464L97.9087 175.125L97.9087 175.125L97.7788 174.464ZM97.9069 174.438L98.0368 175.1L98.5842 174.992L98.5808 174.434L97.9069 174.438ZM97.7921 155.434L98.466 155.43L98.4526 153.225L97.2311 155.061L97.7921 155.434ZM87.6129 170.728L87.0519 170.355L86.477 171.219L87.4999 171.393L87.6129 170.728ZM88.9184 170.95L89.0315 170.286L89.0315 170.286L88.9184 170.95ZM89.0263 171.911L89.2837 172.534L89.2837 172.534L89.0263 171.911ZM87.672 172.471L87.4145 171.848L87.4145 171.848L87.672 172.471ZM87.4966 172.593L87.0042 172.132L87.0042 172.132L87.4966 172.593ZM86.4883 173.672L86.9808 174.132L86.4883 173.672ZM85.6249 173.244L84.9605 173.131L85.6249 173.244ZM85.7556 172.476L86.4199 172.589L86.6623 171.164L85.4151 171.894L85.7556 172.476ZM69.9171 181.748L69.5766 181.167L67.6739 182.281L69.8742 182.421L69.9171 181.748ZM88.5439 182.935L88.5011 183.608L89.2185 183.653L89.2178 182.935L88.5439 182.935ZM88.5434 182.314L89.2173 182.313L89.2173 182.313L88.5434 182.314ZM88.498 182.105L87.8849 182.385L87.8849 182.385L88.498 182.105ZM87.8894 180.772L87.2764 181.052L87.2764 181.052L87.8894 180.772ZM88.6235 180.143L88.2531 180.706L88.6235 180.143ZM89.7632 180.893L89.3928 181.456L89.3928 181.456L89.7632 180.893ZM90.0402 180.976L90.0408 181.65L90.0408 181.65L90.0402 180.976ZM91.4045 180.975L91.4051 181.648L91.4051 181.648L91.4045 180.975ZM91.6727 181.903L92.0315 182.474L91.6727 181.903ZM90.4322 182.684L90.791 183.254L90.791 183.254L90.4322 182.684ZM90.2798 182.833L89.7169 182.462L89.7169 182.462L90.2798 182.833ZM90.0008 183.257L89.4379 182.886L89.0427 183.487L89.6674 183.842L90.0008 183.257ZM106.643 192.732L106.31 193.317L108.226 194.408L107.247 192.432L106.643 192.732ZM98.9938 176.496C98.989 176.508 98.9828 176.519 98.9754 176.529L97.8733 175.753C97.8227 175.825 97.7802 175.903 97.7467 175.984L98.9938 176.496ZM98.4337 177.862L98.9938 176.496L97.7467 175.984L97.1866 177.351L98.4337 177.862ZM96.1899 177.643C96.4149 178.788 97.9909 178.943 98.4337 177.862L97.1866 177.351C97.1972 177.325 97.2236 177.291 97.2647 177.268C97.3009 177.247 97.3351 177.243 97.3613 177.246C97.3876 177.248 97.4203 177.259 97.4519 177.286C97.4878 177.317 97.507 177.356 97.5124 177.383L96.1899 177.643ZM95.9052 176.193L96.1899 177.643L97.5124 177.383L97.2278 175.934L95.9052 176.193ZM95.934 176.26C95.9197 176.24 95.9099 176.217 95.9052 176.193L97.2278 175.934C97.1953 175.769 97.1279 175.612 97.0299 175.475L95.934 176.26ZM95.0809 175.068L95.934 176.26L97.0299 175.475L96.1769 174.284L95.0809 175.068ZM96.4842 173.294C95.3913 172.846 94.3934 174.108 95.0809 175.068L96.1769 174.284C96.1931 174.306 96.2085 174.348 96.2058 174.396C96.2034 174.438 96.1883 174.469 96.1719 174.489C96.1556 174.51 96.1288 174.532 96.0885 174.544C96.0425 174.558 95.9988 174.552 95.9731 174.541L96.4842 173.294ZM97.7467 173.812L96.4842 173.294L95.9731 174.541L97.2355 175.059L97.7467 173.812ZM97.6489 173.802C97.6818 173.796 97.7157 173.799 97.7467 173.812L97.2355 175.059C97.4486 175.146 97.6827 175.169 97.9087 175.125L97.6489 173.802ZM97.7771 173.777L97.6489 173.802L97.9087 175.125L98.0368 175.1L97.7771 173.777ZM97.1182 155.438L97.233 174.442L98.5808 174.434L98.466 155.43L97.1182 155.438ZM88.1739 171.102L98.3531 155.807L97.2311 155.061L87.0519 170.355L88.1739 171.102ZM89.0315 170.286L87.7259 170.064L87.4999 171.393L88.8054 171.615L89.0315 170.286ZM89.2837 172.534C90.3754 172.083 90.196 170.484 89.0315 170.286L88.8054 171.615C88.778 171.61 88.738 171.592 88.7062 171.556C88.6784 171.524 88.6672 171.492 88.6643 171.465C88.6613 171.439 88.665 171.405 88.6851 171.368C88.7082 171.326 88.7431 171.299 88.7688 171.288L89.2837 172.534ZM87.9295 173.094L89.2837 172.534L88.7688 171.288L87.4145 171.848L87.9295 173.094ZM87.989 173.053C87.9724 173.07 87.952 173.085 87.9295 173.094L87.4145 171.848C87.259 171.913 87.1191 172.009 87.0042 172.132L87.989 173.053ZM86.9808 174.132L87.9891 173.053L87.0042 172.132L85.9959 173.212L86.9808 174.132ZM84.9605 173.131C84.7647 174.282 86.1837 174.985 86.9808 174.132L85.9959 173.212C86.015 173.191 86.0519 173.168 86.0985 173.161C86.1396 173.155 86.173 173.164 86.1966 173.175C86.2203 173.187 86.2471 173.209 86.2671 173.245C86.2898 173.286 86.2939 173.33 86.2892 173.357L84.9605 173.131ZM85.0912 172.363L84.9605 173.131L86.2892 173.357L86.4199 172.589L85.0912 172.363ZM70.2575 182.33L86.096 173.057L85.4151 171.894L69.5766 181.167L70.2575 182.33ZM88.5868 182.263L69.9599 181.076L69.8742 182.421L88.5011 183.608L88.5868 182.263ZM87.8695 182.314L87.87 182.936L89.2178 182.935L89.2173 182.313L87.8695 182.314ZM87.8849 182.385C87.8748 182.363 87.8695 182.339 87.8695 182.314L89.2173 182.313C89.2172 182.145 89.1809 181.978 89.111 181.825L87.8849 182.385ZM87.2764 181.052L87.8849 182.385L89.111 181.825L88.5025 180.492L87.2764 181.052ZM88.994 179.58C88.0073 178.931 86.7859 179.977 87.2764 181.052L88.5025 180.492C88.514 180.517 88.5213 180.561 88.5094 180.607C88.499 180.648 88.4782 180.676 88.4582 180.693C88.4382 180.71 88.4077 180.726 88.3659 180.73C88.3181 180.735 88.2763 180.721 88.2531 180.706L88.994 179.58ZM90.1337 180.33L88.994 179.58L88.2531 180.706L89.3928 181.456L90.1337 180.33ZM90.0396 180.302C90.073 180.302 90.1058 180.312 90.1337 180.33L89.3928 181.456C89.5851 181.582 89.8104 181.65 90.0408 181.65L90.0396 180.302ZM91.404 180.301L90.0396 180.302L90.0408 181.65L91.4051 181.648L91.404 180.301ZM92.0315 182.474C93.0314 181.845 92.5852 180.3 91.404 180.301L91.4051 181.648C91.3773 181.649 91.3348 181.637 91.2974 181.607C91.2646 181.581 91.2481 181.55 91.2408 181.525C91.2335 181.5 91.2313 181.465 91.2449 181.425C91.2606 181.38 91.2904 181.348 91.314 181.333L92.0315 182.474ZM90.791 183.254L92.0315 182.474L91.314 181.333L90.0735 182.113L90.791 183.254ZM90.8427 183.203C90.8293 183.224 90.8117 183.241 90.791 183.254L90.0735 182.113C89.931 182.203 89.8094 182.322 89.7169 182.462L90.8427 183.203ZM90.5638 183.627L90.8427 183.203L89.7169 182.462L89.4379 182.886L90.5638 183.627ZM106.977 192.146L90.3343 182.671L89.6674 183.842L106.31 193.317L106.977 192.146ZM97.8205 176.44L106.039 193.031L107.247 192.432L99.0283 175.842L97.8205 176.44ZM92.3951 176.395C92.2702 176.813 92.0602 177.09 91.8191 177.236C91.5912 177.374 91.2481 177.449 90.7298 177.294L90.3436 178.585C91.156 178.828 91.9057 178.76 92.5176 178.389C93.1163 178.026 93.4929 177.429 93.6864 176.782L92.3951 176.395ZM91.4965 174.73C92.0149 174.885 92.2606 175.136 92.3753 175.376C92.4966 175.631 92.52 175.978 92.3951 176.395L93.6864 176.782C93.8799 176.135 93.8931 175.428 93.592 174.796C93.2841 174.151 92.6951 173.682 91.8827 173.439L91.4965 174.73ZM89.8312 175.629C89.9561 175.211 90.1661 174.934 90.4072 174.788C90.6351 174.65 90.9782 174.575 91.4965 174.73L91.8827 173.439C91.0703 173.196 90.3205 173.264 89.7087 173.635C89.11 173.998 88.7334 174.595 88.5399 175.242L89.8312 175.629ZM90.7298 177.294C90.2114 177.139 89.9657 176.888 89.851 176.648C89.7297 176.393 89.7063 176.046 89.8312 175.629L88.5399 175.242C88.3464 175.889 88.3331 176.596 88.6343 177.227C88.9422 177.873 89.5312 178.342 90.3436 178.585L90.7298 177.294Z" fill="black" mask="url(#path-32-inside-3_1_127)"/>
<path d="M94.4713 176.489C94.4777 176.42 94.4269 176.358 94.3578 176.352C94.2886 176.346 94.2273 176.396 94.2209 176.466L94.4713 176.489ZM90.3816 179.094C91.3067 179.643 92.2725 179.662 93.0407 179.193C93.8061 178.727 94.3494 177.793 94.4713 176.489L94.2209 176.466C94.1041 177.715 93.589 178.565 92.9098 178.979C92.2334 179.391 91.3683 179.387 90.51 178.878L90.3816 179.094ZM73.8361 181.436L85.8747 174.536L85.7496 174.318L73.711 181.217L73.8361 181.436ZM96.1757 158.666L96.4775 173.456L96.729 173.451L96.4271 158.661L96.1757 158.666ZM92.213 182.769L103.878 189.407L104.002 189.189L92.3374 182.55L92.213 182.769Z" fill="black"/>
</g>
<g filter="url(#filter12_d_1_127)">
<path d="M54.7542 123.829L53.4907 119.196M53.4907 119.196L55.5966 116.247L54.3331 114.562M53.4907 119.196L50.5424 120.038V118.353L47.5941 115.826M48.8576 133.095H46.7517L44.6457 134.78L42.961 132.252M41.2762 129.725L42.961 132.252M42.961 132.252L41.2762 138.57L38.7491 136.464" stroke="black" stroke-width="0.210594"/>
</g>
<defs>
<filter id="filter0_d_1_127" x="8.42357" y="91.8185" width="48.9463" height="44.6458" filterUnits="userSpaceOnUse" color-interpolation-filters="sRGB">
<feFlood flood-opacity="0" result="BackgroundImageFix"/>
<feColorMatrix in="SourceAlpha" type="matrix" values="0 0 0 0 0 0 0 0 0 0 0 0 0 0 0 0 0 0 127 0" result="hardAlpha"/>
<feOffset dy="1.68475"/>
<feGaussianBlur stdDeviation="4.21188"/>
<feComposite in2="hardAlpha" operator="out"/>
<feColorMatrix type="matrix" values="0 0 0 0 0 0 0 0 0 0 0 0 0 0 0 0 0 0 0.25 0"/>
<feBlend mode="normal" in2="BackgroundImageFix" result="effect1_dropShadow_1_127"/>
<feBlend mode="normal" in="SourceGraphic" in2="effect1_dropShadow_1_127" result="shape"/>
</filter>
<filter id="filter1_d_1_127" x="26.4995" y="17.5555" width="148.852" height="196.286" filterUnits="userSpaceOnUse" color-interpolation-filters="sRGB">
<feFlood flood-opacity="0" result="BackgroundImageFix"/>
<feColorMatrix in="SourceAlpha" type="matrix" values="0 0 0 0 0 0 0 0 0 0 0 0 0 0 0 0 0 0 127 0" result="hardAlpha"/>
<feOffset dy="1.68475"/>
<feGaussianBlur stdDeviation="2.52713"/>
<feComposite in2="hardAlpha" operator="out"/>
<feColorMatrix type="matrix" values="0 0 0 0 0 0 0 0 0 0 0 0 0 0 0 0 0 0 0.25 0"/>
<feBlend mode="normal" in2="BackgroundImageFix" result="effect1_dropShadow_1_127"/>
<feBlend mode="normal" in="SourceGraphic" in2="effect1_dropShadow_1_127" result="shape"/>
</filter>
<filter id="filter2_d_1_127" x="34.7679" y="21.0695" width="128.018" height="181.628" filterUnits="userSpaceOnUse" color-interpolation-filters="sRGB">
<feFlood flood-opacity="0" result="BackgroundImageFix"/>
<feColorMatrix in="SourceAlpha" type="matrix" values="0 0 0 0 0 0 0 0 0 0 0 0 0 0 0 0 0 0 127 0" result="hardAlpha"/>
<feOffset dy="0.421188"/>
<feGaussianBlur stdDeviation="0.421188"/>
<feComposite in2="hardAlpha" operator="out"/>
<feColorMatrix type="matrix" values="0 0 0 0 0 0 0 0 0 0 0 0 0 0 0 0 0 0 0.25 0"/>
<feBlend mode="normal" in2="BackgroundImageFix" result="effect1_dropShadow_1_127"/>
<feBlend mode="normal" in="SourceGraphic" in2="effect1_dropShadow_1_127" result="shape"/>
</filter>
<filter id="filter3_if_1_127" x="97.5219" y="122.847" width="25.7171" height="36.4144" filterUnits="userSpaceOnUse" color-interpolation-filters="sRGB">
<feFlood flood-opacity="0" result="BackgroundImageFix"/>
<feBlend mode="normal" in="SourceGraphic" in2="BackgroundImageFix" result="shape"/>
<feColorMatrix in="SourceAlpha" type="matrix" values="0 0 0 0 0 0 0 0 0 0 0 0 0 0 0 0 0 0 127 0" result="hardAlpha"/>
<feOffset dy="2.88965"/>
<feGaussianBlur stdDeviation="1.44482"/>
<feComposite in2="hardAlpha" operator="arithmetic" k2="-1" k3="1"/>
<feColorMatrix type="matrix" values="0 0 0 0 0 0 0 0 0 0 0 0 0 0 0 0 0 0 0.25 0"/>
<feBlend mode="normal" in2="shape" result="effect1_innerShadow_1_127"/>
<feGaussianBlur stdDeviation="0.421188" result="effect2_foregroundBlur_1_127"/>
</filter>
<filter id="filter4_d_1_127" x="16.0883" y="53.949" width="93.8594" height="128.148" filterUnits="userSpaceOnUse" color-interpolation-filters="sRGB">
<feFlood flood-opacity="0" result="BackgroundImageFix"/>
<feColorMatrix in="SourceAlpha" type="matrix" values="0 0 0 0 0 0 0 0 0 0 0 0 0 0 0 0 0 0 127 0" result="hardAlpha"/>
<feOffset dy="1.68475"/>
<feGaussianBlur stdDeviation="1.68475"/>
<feComposite in2="hardAlpha" operator="out"/>
<feColorMatrix type="matrix" values="0 0 0 0 0 0 0 0 0 0 0 0 0 0 0 0 0 0 0.25 0"/>
<feBlend mode="normal" in2="BackgroundImageFix" result="effect1_dropShadow_1_127"/>
<feBlend mode="normal" in="SourceGraphic" in2="effect1_dropShadow_1_127" result="shape"/>
</filter>
<filter id="filter5_d_1_127" x="77.2529" y="70.6982" width="45.9263" height="108.455" filterUnits="userSpaceOnUse" color-interpolation-filters="sRGB">
<feFlood flood-opacity="0" result="BackgroundImageFix"/>
<feColorMatrix in="SourceAlpha" type="matrix" values="0 0 0 0 0 0 0 0 0 0 0 0 0 0 0 0 0 0 127 0" result="hardAlpha"/>
<feOffset dy="0.842375"/>
<feGaussianBlur stdDeviation="0.842375"/>
<feComposite in2="hardAlpha" operator="out"/>
<feColorMatrix type="matrix" values="0 0 0 0 0 0 0 0 0 0 0 0 0 0 0 0 0 0 1 0"/>
<feBlend mode="normal" in2="BackgroundImageFix" result="effect1_dropShadow_1_127"/>
<feBlend mode="normal" in="SourceGraphic" in2="effect1_dropShadow_1_127" result="shape"/>
</filter>
<filter id="filter6_d_1_127" x="39.5094" y="116.279" width="42.2862" height="51.1961" filterUnits="userSpaceOnUse" color-interpolation-filters="sRGB">
<feFlood flood-opacity="0" result="BackgroundImageFix"/>
<feColorMatrix in="SourceAlpha" type="matrix" values="0 0 0 0 0 0 0 0 0 0 0 0 0 0 0 0 0 0 127 0" result="hardAlpha"/>
<feOffset dy="1.68475"/>
<feGaussianBlur stdDeviation="4.21188"/>
<feComposite in2="hardAlpha" operator="out"/>
<feColorMatrix type="matrix" values="0 0 0 0 0 0 0 0 0 0 0 0 0 0 0 0 0 0 0.25 0"/>
<feBlend mode="normal" in2="BackgroundImageFix" result="effect1_dropShadow_1_127"/>
<feBlend mode="normal" in="SourceGraphic" in2="effect1_dropShadow_1_127" result="shape"/>
</filter>
<filter id="filter7_f_1_127" x="51.1399" y="123.58" width="22.3491" height="32.7695" filterUnits="userSpaceOnUse" color-interpolation-filters="sRGB">
<feFlood flood-opacity="0" result="BackgroundImageFix"/>
<feBlend mode="normal" in="SourceGraphic" in2="BackgroundImageFix" result="shape"/>
<feGaussianBlur stdDeviation="0.210594" result="effect1_foregroundBlur_1_127"/>
</filter>
<filter id="filter8_d_1_127" x="20.6064" y="57.2638" width="13.6849" height="46.4649" filterUnits="userSpaceOnUse" color-interpolation-filters="sRGB">
<feFlood flood-opacity="0" result="BackgroundImageFix"/>
<feColorMatrix in="SourceAlpha" type="matrix" values="0 0 0 0 0 0 0 0 0 0 0 0 0 0 0 0 0 0 127 0" result="hardAlpha"/>
<feOffset dy="1.68475"/>
<feGaussianBlur stdDeviation="0.421188"/>
<feComposite in2="hardAlpha" operator="out"/>
<feColorMatrix type="matrix" values="0 0 0 0 0 0 0 0 0 0 0 0 0 0 0 0 0 0 1 0"/>
<feBlend mode="normal" in2="BackgroundImageFix" result="effect1_dropShadow_1_127"/>
<feBlend mode="normal" in="SourceGraphic" in2="effect1_dropShadow_1_127" result="shape"/>
</filter>
<filter id="filter9_d_1_127" x="71.5547" y="99.3494" width="34.6807" height="72.0851" filterUnits="userSpaceOnUse" color-interpolation-filters="sRGB">
<feFlood flood-opacity="0" result="BackgroundImageFix"/>
<feColorMatrix in="SourceAlpha" type="matrix" values="0 0 0 0 0 0 0 0 0 0 0 0 0 0 0 0 0 0 127 0" result="hardAlpha"/>
<feOffset dy="1.68475"/>
<feGaussianBlur stdDeviation="1.68475"/>
<feComposite in2="hardAlpha" operator="out"/>
<feColorMatrix type="matrix" values="0 0 0 0 0 0 0 0 0 0 0 0 0 0 0 0 0 0 1 0"/>
<feBlend mode="normal" in2="BackgroundImageFix" result="effect1_dropShadow_1_127"/>
<feBlend mode="normal" in="SourceGraphic" in2="effect1_dropShadow_1_127" result="shape"/>
</filter>
<filter id="filter10_d_1_127" x="100.935" y="84.3281" width="61.3159" height="57.0585" filterUnits="userSpaceOnUse" color-interpolation-filters="sRGB">
<feFlood flood-opacity="0" result="BackgroundImageFix"/>
<feColorMatrix in="SourceAlpha" type="matrix" values="0 0 0 0 0 0 0 0 0 0 0 0 0 0 0 0 0 0 127 0" result="hardAlpha"/>
<feOffset dy="1.54634"/>
<feGaussianBlur stdDeviation="3.86585"/>
<feComposite in2="hardAlpha" operator="out"/>
<feColorMatrix type="matrix" values="0 0 0 0 0 0 0 0 0 0 0 0 0 0 0 0 0 0 0.25 0"/>
<feBlend mode="normal" in2="BackgroundImageFix" result="effect1_dropShadow_1_127"/>
<feBlend mode="normal" in="SourceGraphic" in2="effect1_dropShadow_1_127" result="shape"/>
</filter>
<filter id="filter11_d_1_127" x="61.4933" y="148.695" width="53.5738" height="54.145" filterUnits="userSpaceOnUse" color-interpolation-filters="sRGB">
<feFlood flood-opacity="0" result="BackgroundImageFix"/>
<feColorMatrix in="SourceAlpha" type="matrix" values="0 0 0 0 0 0 0 0 0 0 0 0 0 0 0 0 0 0 127 0" result="hardAlpha"/>
<feOffset dy="1.68475"/>
<feGaussianBlur stdDeviation="4.21188"/>
<feComposite in2="hardAlpha" operator="out"/>
<feColorMatrix type="matrix" values="0 0 0 0 0 0 0 0 0 0 0 0 0 0 0 0 0 0 0.25 0"/>
<feBlend mode="normal" in2="BackgroundImageFix" result="effect1_dropShadow_1_127"/>
<feBlend mode="normal" in="SourceGraphic" in2="effect1_dropShadow_1_127" result="shape"/>
</filter>
<filter id="filter12_d_1_127" x="35.3122" y="112.815" width="23.7844" height="30.9963" filterUnits="userSpaceOnUse" color-interpolation-filters="sRGB">
<feFlood flood-opacity="0" result="BackgroundImageFix"/>
<feColorMatrix in="SourceAlpha" type="matrix" values="0 0 0 0 0 0 0 0 0 0 0 0 0 0 0 0 0 0 127 0" result="hardAlpha"/>
<feOffset dy="1.68475"/>
<feGaussianBlur stdDeviation="1.68475"/>
<feComposite in2="hardAlpha" operator="out"/>
<feColorMatrix type="matrix" values="0 0 0 0 0 0 0 0 0 0 0 0 0 0 0 0 0 0 1 0"/>
<feBlend mode="normal" in2="BackgroundImageFix" result="effect1_dropShadow_1_127"/>
<feBlend mode="normal" in="SourceGraphic" in2="effect1_dropShadow_1_127" result="shape"/>
</filter>
<linearGradient id="paint0_linear_1_127" x1="32.8967" y1="98.5575" x2="32.8967" y2="126.356" gradientUnits="userSpaceOnUse">
<stop stop-color="#636363"/>
<stop offset="1" stop-color="#3D3D3D"/>
</linearGradient>
<linearGradient id="paint1_linear_1_127" x1="146.152" y1="40.8557" x2="158.74" y2="51.2535" gradientUnits="userSpaceOnUse">
<stop stop-color="#5E5E5E"/>
<stop offset="1" stop-color="#3D3D3D"/>
</linearGradient>
<linearGradient id="paint2_linear_1_127" x1="130.568" y1="58.1243" x2="13.4781" y2="207.646" gradientUnits="userSpaceOnUse">
<stop stop-color="#696969"/>
<stop offset="0.9999" stop-color="#D9D9D9"/>
<stop offset="1" stop-color="#8E8E8E"/>
</linearGradient>
<linearGradient id="paint3_linear_1_127" x1="76.6563" y1="50.964" x2="92.6614" y2="208.488" gradientUnits="userSpaceOnUse">
<stop stop-color="#7B7B7B"/>
<stop offset="0.120742" stop-color="#6D6D6D"/>
<stop offset="1" stop-color="#505050"/>
</linearGradient>
<linearGradient id="paint4_linear_1_127" x1="11.3719" y1="51.3846" x2="42.5398" y2="178.583" gradientUnits="userSpaceOnUse">
<stop stop-color="#CCFF00"/>
<stop offset="0.708333" stop-color="#A5BE40"/>
<stop offset="1" stop-color="#7E9134"/>
</linearGradient>
<linearGradient id="paint5_linear_1_127" x1="106.913" y1="162.85" x2="109.154" y2="174.347" gradientUnits="userSpaceOnUse">
<stop stop-color="#ACCA36"/>
<stop offset="1" stop-color="#7E9134"/>
</linearGradient>
<linearGradient id="paint6_linear_1_127" x1="120.229" y1="153.726" x2="121.224" y2="158.16" gradientUnits="userSpaceOnUse">
<stop stop-color="#AECC34"/>
<stop offset="1" stop-color="#7E9134"/>
</linearGradient>
<linearGradient id="paint7_linear_1_127" x1="88.7595" y1="121.916" x2="92.2183" y2="132.419" gradientUnits="userSpaceOnUse">
<stop stop-color="#CAFC04"/>
<stop offset="1" stop-color="#7E9134"/>
</linearGradient>
<linearGradient id="paint8_linear_1_127" x1="119.722" y1="111.949" x2="120.651" y2="116.108" gradientUnits="userSpaceOnUse">
<stop stop-color="#B0D030"/>
<stop offset="1" stop-color="#7E9134"/>
</linearGradient>
<linearGradient id="paint9_linear_1_127" x1="95.9589" y1="117.582" x2="97.0102" y2="122.295" gradientUnits="userSpaceOnUse">
<stop stop-color="#CAFC04"/>
<stop offset="1" stop-color="#7E9134"/>
</linearGradient>
<linearGradient id="paint10_linear_1_127" x1="110.369" y1="103.726" x2="113.746" y2="113.963" gradientUnits="userSpaceOnUse">
<stop stop-color="#B6DB25"/>
<stop offset="1" stop-color="#7E9134"/>
</linearGradient>
<linearGradient id="paint11_linear_1_127" x1="110.871" y1="96.5542" x2="112.415" y2="102.888" gradientUnits="userSpaceOnUse">
<stop stop-color="#A8C43B"/>
<stop offset="1" stop-color="#7E9134"/>
</linearGradient>
<linearGradient id="paint12_linear_1_127" x1="108.013" y1="73.9789" x2="111.053" y2="85.079" gradientUnits="userSpaceOnUse">
<stop stop-color="#CAFC04"/>
<stop offset="1" stop-color="#7E9134"/>
</linearGradient>
<linearGradient id="paint13_linear_1_127" x1="122.037" y1="81.0873" x2="122.922" y2="86.4793" gradientUnits="userSpaceOnUse">
<stop stop-color="#CAFC04"/>
<stop offset="1" stop-color="#7E9134"/>
</linearGradient>
<linearGradient id="paint14_linear_1_127" x1="125.57" y1="81.2606" x2="134.021" y2="118.689" gradientUnits="userSpaceOnUse">
<stop stop-color="#797979"/>
<stop offset="1" stop-color="#3D3D3D"/>
</linearGradient>
<linearGradient id="paint15_linear_1_127" x1="97.7921" y1="155.434" x2="88.2802" y2="187.24" gradientUnits="userSpaceOnUse">
<stop stop-color="#676767"/>
<stop offset="1" stop-color="#3D3D3D"/>
</linearGradient>
</defs>
</svg>
